# xmcd CD database file
# Generated: Wed Nov 14 19:09:21 2001 by KSCD
# 
# Track frame offsets:
#       150
#       8785
#       28150
#       43347
#       56080
#       66975
#       80460
#       91942
#       105045
#       116590
#       129180
#       141035
#
# Disc length: 2092 seconds
#
# Revision: 2
# Processed by: cddbd v1.4PL0 Copyright (c) Steve Scherf et al.
# Submitted via: Kscd 1.2.7
#
DISCID=98082a0c
DTITLE=Johnny Western - Have Gun, Will Travel
DYEAR=1900
DGENRE=
TTITLE0=Ballad Of Paladin
TTITLE1=The Guns of Rio Muerto
TTITLE2=The Searchers
TTITLE3=Cowpoke
TTITLE4=Rolin' Dust
TTITLE5=Hannah Lee
TTITLE6=Streets Of Laredo
TTITLE7=The Long Tall Shadow
TTITLE8=The Lillies Grow High
TTITLE9=The Cottonwood Tree
TTITLE10=Nineteen Men
TTITLE11=The Last Roundup
EXTD=Johnny western and the Sons of the Pioneers\nSpecial Guest Star: Richa
EXTD=rd Boone\n\nProduced by: Jim Harbert\nTape Compilation by: Keith Bocsh
EXTD=er\n\nRecorded in Hollywood, California\nLimited Edition
EXTT0=(J. Western, R. Boone, S. Rolfe) BMI
EXTT1=Narration by Richard Boone\n(J. Western, R. Boone, S. Rolfe) BMI
EXTT2=(Stan Jones) ASCAP
EXTT3=(Stan Jones) ASCAP
EXTT4=(Stan Jones) ASCAP
EXTT5=(Stan Jones) ASCAP
EXTT6=(Arr.: Rex Allen) BMI
EXTT7=(J. Bond, N. Miller) BMI
EXTT8=(Stan Jones) ASCAP
EXTT9=(Stan Jones) ASCAP
EXTT10=(C. Sorenson, J. Shane) ASCAP
EXTT11=(Billy Hill) ASCAP
PLAYORDER=
